<?xml version="1.0" encoding="UTF-8" standalone="no"?>
<svg width="86px" height="66px" viewBox="0 0 86 66" version="1.1" xmlns="http://www.w3.org/2000/svg" xmlns:xlink="http://www.w3.org/1999/xlink">
    <!-- Generator: Sketch 3.6.1 (26313) - http://www.bohemiancoding.com/sketch -->
    <title>galaxy-5</title>
    <desc>Created with Sketch.</desc>
    <defs></defs>
    <g id="Welcome" stroke="none" stroke-width="1" fill="none" fill-rule="evenodd">
        <g id="Desktop-HD" transform="translate(-995.000000, -1725.000000)">
            <g id="Devices" transform="translate(251.000000, 1590.000000)">
                <g id="Samsung-Galaxy" transform="translate(719.000000, 106.000000)">
                    <rect id="Rectangle-18-Copy" stroke="#DDDDDD" stroke-width="2" x="0" y="0" width="140" height="140"></rect>
                    <g id="Group-2" transform="translate(57.000000, 43.000000)" stroke="#0000FF">
                        <path d="M1.56319402e-13,3.06786119 C1.56319402e-13,1.96166328 0.888636725,0.932193929 1.97839043,0.779535627 C1.97839043,0.779535627 6.76879883,-2.60208521e-18 10.9593019,0 C15.9897461,-2.60208521e-18 19.9581012,0.754033131 19.9581012,0.754033131 C21.0408574,0.925727167 21.9186047,1.96789192 21.9186047,3.06786119 L21.9186047,35.5913759 C21.9186047,36.6975739 21.0371921,37.7063793 19.9262888,37.8400135 C19.9262888,37.8400135 14.8112793,38.5388184 10.9593019,38.5388184 C7.1073246,38.5388184 1.97131317,37.8375551 1.97131317,37.8375551 C0.88258697,37.7032225 1.56319402e-13,36.6913452 1.56319402e-13,35.5913759 L1.56319402e-13,3.06786119 Z" id="Rectangle-8-Copy-4"></path>
                        <rect id="Rectangle-21" x="7" y="32" width="8" height="3" rx="2"></rect>
                    </g>
                </g>
            </g>
        </g>
    </g>
</svg>