<?xml version="1.0" encoding="UTF-8" standalone="no"?>
<svg width="159px" height="159px" viewBox="0 0 159 159" version="1.1" xmlns="http://www.w3.org/2000/svg" xmlns:xlink="http://www.w3.org/1999/xlink">
    <!-- Generator: Sketch 3.6.1 (26313) - http://www.bohemiancoding.com/sketch -->
    <title>logo</title>
    <desc>Created with Sketch.</desc>
    <defs></defs>
    <g id="Welcome" stroke="none" stroke-width="1" fill="none" fill-rule="evenodd">
        <g id="Desktop-HD" transform="translate(-641.000000, -204.000000)" fill="#FFFFFF">
            <g id="Page-1" transform="translate(641.000000, 204.000000)">
                <path d="M54.5771215,150.633925 L56.1165981,150.633925 L56.1165981,7.69886916 L54.5771215,7.69886916 L54.5771215,150.633925 Z" id="Fill-1"></path>
                <path d="M102.225112,150.633925 L103.764589,150.633925 L103.764589,7.69886916 L102.225112,7.69886916 L102.225112,150.633925 Z" id="Fill-2"></path>
                <path d="M7.71075701,56.1076822 L150.644327,56.1076822 L150.644327,54.5682056 L7.71075701,54.5682056 L7.71075701,56.1076822 Z" id="Fill-3"></path>
                <path d="M102.428989,151.165609 L7.1865028,55.9231234 L8.2757271,54.835385 L103.518213,150.076385 L102.428989,151.165609 Z" id="Fill-4"></path>
                <path d="M150.638086,103.760279 L7.70302991,103.760279 L7.70302991,102.220803 L148.807357,102.220803 L54.8130953,8.22505514 L55.9008336,7.13583084 L151.532647,102.767644 L151.190871,103.739476 L150.638086,103.760279 Z" id="Fill-5"></path>
                <path d="M8.26309626,103.499787 L7.17387196,102.410563 L102.438648,7.1472729 L103.526386,8.2364972 L8.26309626,103.499787 Z" id="Fill-6"></path>
                <path d="M55.8965243,151.165609 L54.8073,150.076385 L150.094365,54.7908056 L151.182104,55.8800299 L55.8965243,151.165609 Z" id="Fill-7"></path>
                <path d="M0,0 L0,55.3483458 L15.3992243,55.3483458 L15.3992243,15.3992243 L55.3468598,15.3992243 L55.3468598,0 L0,0 Z" id="Fill-8"></path>
                <path d="M142.930152,102.985192 L142.930152,142.934313 L102.981031,142.934313 L102.981031,158.333537 L158.329377,158.333537 L158.329377,102.985192 L142.930152,102.985192 Z" id="Fill-9"></path>
                <path d="M102.981179,0 L102.981179,15.3992243 L142.930301,15.3992243 L142.930301,55.3483458 L158.329525,55.3483458 L158.329525,0 L102.981179,0 Z" id="Fill-10"></path>
                <path d="M0,102.985192 L0,158.333537 L55.3468598,158.333537 L55.3468598,142.934313 L15.3992243,142.934313 L15.3992243,102.985192 L0,102.985192 Z" id="Fill-11"></path>
            </g>
        </g>
    </g>
</svg>