<?xml version="1.0" encoding="UTF-8" standalone="no"?>
<svg width="159px" height="159px" viewBox="0 0 159 159" version="1.1" xmlns="http://www.w3.org/2000/svg" xmlns:xlink="http://www.w3.org/1999/xlink">
    <!-- Generator: Sketch 3.6.1 (26313) - http://www.bohemiancoding.com/sketch -->
    <title>mark</title>
    <desc>Created with Sketch.</desc>
    <defs></defs>
    <g id="Page-1" stroke="none" stroke-width="1" fill="none" fill-rule="evenodd">
        <g id="mark" fill="#FFFFFF">
            <path d="M102.657281,0 L102.657281,7.39128843 L79.510446,30.5381237 L56.3546571,7.38233472 L56.3546571,0 L0,0 L0,56.3457033 L7.40024214,56.3457033 L30.5530465,79.4970154 L7.40173443,102.654297 L0,102.654297 L0,159.004477 L56.3546571,159.005969 L56.3546571,151.599758 L79.4970154,128.442477 L102.657281,151.599758 L102.657281,159.005969 L159,159.004477 L159,102.654297 L151.605727,102.654297 L128.455907,79.4850771 L151.595281,56.3457033 L159,56.3457033 L159,0 L102.657281,0 Z M56.3546571,15.4645512 L56.3546571,9.56853249 L78.4180933,31.6319687 L56.3546571,53.6954049 L56.3546571,15.4645512 Z M80.604291,31.6319687 L102.657281,9.57897849 L102.657281,15.4645512 L102.657281,53.6864512 L80.604291,31.6319687 Z M104.204781,54.7996959 L143.536941,54.7996959 L143.536941,15.4645512 L104.204781,15.4645512 L104.204781,54.7996959 Z M15.4630589,15.4645512 L54.8086496,15.4645512 L54.8086496,54.7996959 L15.4630589,54.8026805 L15.4630589,15.4645512 Z M79.510446,32.7243214 L101.584328,54.7996959 L57.4365638,54.7996959 L79.510446,32.7243214 Z M105.318026,56.3457033 L143.535449,56.3457033 L149.407591,56.3457033 L127.362062,78.3897398 L105.318026,56.3457033 Z M56.3546571,102.654297 L102.657281,102.654297 L102.657281,56.3457033 L56.3546571,56.3457033 L56.3546571,102.654297 Z M9.58942448,56.3457033 L15.4630589,56.3457033 L53.7043586,56.3457033 L31.6453993,78.4031704 L9.58942448,56.3457033 Z M104.204781,57.4186564 L126.269709,79.4850771 L104.204781,101.550006 L104.204781,57.4186564 Z M32.7392443,79.4970154 L54.8086496,57.4291024 L54.8086496,101.564928 L32.7392443,79.4970154 Z M127.362062,80.5774299 L149.438929,102.654297 L143.535449,102.654297 L105.285195,102.654297 L127.362062,80.5774299 Z M31.6453993,80.5908605 L53.7088355,102.654297 L15.4630589,102.654297 L9.58196306,102.654297 L31.6453993,80.5908605 Z M104.204781,104.200304 L143.535449,104.200304 L143.535449,143.539926 L104.204781,143.541418 L104.204781,104.200304 Z M57.4425329,104.200304 L101.55299,104.200304 L79.4970154,126.254787 L57.4425329,104.200304 Z M15.4630589,143.539926 L15.4630589,104.200304 L54.8086496,104.200304 L54.8086496,143.541418 L15.4630589,143.539926 Z M80.5908605,127.348632 L102.657281,105.282211 L102.657281,143.541418 L102.657281,149.415052 L80.5908605,127.348632 Z M56.3546571,143.541418 L56.3546571,105.298626 L78.4046627,127.348632 L56.3546571,149.398637 L56.3546571,143.541418 Z" id="Page-1"></path>
        </g>
    </g>
</svg>