<svg id="original_full_pattern." data-name="original full pattern." xmlns="http://www.w3.org/2000/svg" viewBox="0 0 1920 1080"><defs><style>.cls-1{fill:lime;}</style></defs><title>pattern</title><rect class="cls-1" x="1376.71" y="186.43" width="0.43" height="39.83"/><rect class="cls-1" x="1476.05" y="186.22" width="39.83" height="0.43"/><rect class="cls-1" x="1482.33" y="167.67" width="0.43" height="37.53" transform="translate(302.4 1102.92) rotate(-45)"/><rect class="cls-1" x="1399.59" y="177.27" width="39.83" height="0.43" transform="translate(290.27 1055.73) rotate(-45)"/><rect class="cls-1" x="1389.92" y="118.66" width="0.43" height="37.53" transform="translate(309.99 1023.22) rotate(-45)"/><rect class="cls-1" x="1843.38" y="61.3" width="0.43" height="39.83" transform="translate(374.63 1198.16) rotate(-39.77)"/><rect class="cls-1" x="1809.41" y="130.42" width="39.83" height="0.43" transform="translate(1532.49 1940.44) rotate(-84.77)"/><rect class="cls-1" x="1877.32" y="123.87" width="0.43" height="37.53" transform="translate(1564.35 1999.36) rotate(-84.77)"/><rect class="cls-1" x="1369.47" y="46.15" width="0.43" height="37.54" transform="translate(355.26 987.53) rotate(-45)"/><rect class="cls-1" x="1472.41" y="10.52" width="37.55" height="0.43" transform="translate(429.17 1057.57) rotate(-45)"/><rect class="cls-1" x="1760.25" y="199.86" width="0.43" height="39.83"/><rect class="cls-1" x="1852.91" y="162.39" width="0.43" height="39.83" transform="translate(1246.61 1942.83) rotate(-76.61)"/><rect class="cls-1" x="1754.78" y="206.35" width="0.43" height="39.83" transform="translate(139.57 948.48) rotate(-31.43)"/><rect class="cls-1" x="1856.28" y="227.89" width="0.43" height="37.55" transform="translate(369.33 1384.98) rotate(-45)"/><rect class="cls-1" x="1510.71" y="42.92" width="0.43" height="39.83" transform="translate(792.33 1393.42) rotate(-64.01)"/><rect class="cls-1" x="1517.99" y="93.85" width="0.43" height="39.83" transform="translate(45.74 500.73) rotate(-19.01)"/><rect class="cls-1" x="1548.33" y="104.7" width="37.53" height="0.43" transform="translate(51.29 516.17) rotate(-19.01)"/><rect class="cls-1" x="1541.21" y="150.89" width="39.83" height="0.43" transform="translate(-0.54 296.53) rotate(-10.85)"/><rect class="cls-1" x="1590.4" y="189.63" width="0.43" height="37.55" transform="translate(831.93 1621.87) rotate(-69.24)"/><rect class="cls-1" x="1371.09" y="-18.33" width="0.43" height="39.83" transform="translate(768.95 1233.51) rotate(-64.01)"/><rect class="cls-1" x="1408.7" y="43.45" width="37.53" height="0.43" transform="translate(63.63 467.35) rotate(-19.01)"/><rect class="cls-1" x="1401.58" y="89.64" width="39.83" height="0.43" transform="translate(8.49 269.16) rotate(-10.85)"/><rect class="cls-1" x="1450.78" y="128.37" width="0.43" height="37.55" transform="translate(799.07 1451.77) rotate(-69.24)"/><polygon class="cls-1" points="1840.02 8.71 1845.61 -5.67 1849.61 -4.12 1845.58 6.26 1855.95 10.29 1854.4 14.29 1840.02 8.71"/><rect class="cls-1" x="1731.7" y="79.83" width="0.43" height="39.83" transform="translate(34.85 459.52) rotate(-15.27)"/><rect class="cls-1" x="1745.49" y="60.48" width="39.83" height="0.43" transform="translate(837.09 1563.55) rotate(-60.27)"/><rect class="cls-1" x="1726.3" y="11.01" width="0.43" height="37.53" transform="translate(844.34 1514.2) rotate(-60.27)"/><rect class="cls-1" x="1764.96" y="-16.11" width="0.43" height="39.83" transform="translate(677.96 1394.43) rotate(-52.1)"/><polygon class="cls-1" points="1705.09 167.21 1694.05 177.97 1691.05 174.9 1699.03 167.13 1691.26 159.15 1694.33 156.16 1705.09 167.21"/><polygon class="cls-1" points="1459.76 -2.1 1458.51 2 1447.86 -1.25 1444.61 9.4 1440.51 8.15 1445.01 -6.6 1459.76 -2.1"/><rect class="cls-1" x="1639.68" y="86.55" width="39.83" height="0.43" transform="matrix(0.55, -0.83, 0.83, 0.55, 673.01, 1424.09)"/><rect class="cls-1" x="1666.84" y="-10.31" width="0.43" height="39.83" transform="translate(740.76 1395.66) rotate(-56.58)"/><rect class="cls-1" x="1567.65" y="-6.32" width="0.43" height="37.55" transform="translate(141.25 662.93) rotate(-24.97)"/><polygon class="cls-1" points="1444.65 229.3 1433.74 240.21 1422.84 229.3 1425.87 226.26 1433.74 234.14 1441.62 226.26 1444.65 229.3"/><rect class="cls-1" x="120.16" y="73.73" width="39.83" height="0.43"/><rect class="cls-1" x="126.44" y="55.18" width="0.43" height="37.53" transform="translate(-15.19 111.21) rotate(-45)"/><rect class="cls-1" x="43.7" y="64.78" width="39.83" height="0.43" transform="translate(-27.33 64.02) rotate(-45)"/><rect class="cls-1" x="162.1" y="-18.64" width="0.43" height="39.83" transform="translate(8.44 52.94) rotate(-19.01)"/><rect class="cls-1" x="185.31" y="38.4" width="39.83" height="0.43" transform="translate(-3.6 39.32) rotate(-10.85)"/><rect class="cls-1" x="234.51" y="77.14" width="0.43" height="37.55" transform="translate(61.84 281.4) rotate(-69.24)"/><rect class="cls-1" x="94.89" y="15.88" width="0.43" height="37.55" transform="translate(28.98 111.3) rotate(-69.24)"/><polygon class="cls-1" points="349.2 54.72 338.15 65.48 335.16 62.41 343.13 54.64 335.37 46.66 338.44 43.67 349.2 54.72"/><polygon class="cls-1" points="88.76 116.81 77.85 127.72 66.95 116.81 69.98 113.78 77.85 121.65 85.72 113.78 88.76 116.81"/><rect class="cls-1" x="120.77" y="335.94" width="39.83" height="0.43"/><rect class="cls-1" x="127.05" y="317.39" width="0.43" height="37.53" transform="translate(-200.42 188.45) rotate(-45)"/><rect class="cls-1" x="44.32" y="326.99" width="39.83" height="0.43" transform="translate(-212.56 141.26) rotate(-45)"/><rect class="cls-1" x="34.65" y="268.38" width="0.43" height="37.53" transform="translate(-192.83 108.75) rotate(-45)"/><rect class="cls-1" x="117.13" y="160.24" width="37.55" height="0.43" transform="translate(-73.65 143.1) rotate(-45)"/><rect class="cls-1" x="155.44" y="192.64" width="0.43" height="39.83" transform="translate(-103.62 259.32) rotate(-64.01)"/><rect class="cls-1" x="162.72" y="243.57" width="0.43" height="39.83" transform="translate(-76.94 67.44) rotate(-19.01)"/><rect class="cls-1" x="193.05" y="254.42" width="37.53" height="0.43" transform="translate(-71.39 82.88) rotate(-19.01)"/><rect class="cls-1" x="185.93" y="300.61" width="39.83" height="0.43" transform="translate(-52.94 44.12) rotate(-10.85)"/><rect class="cls-1" x="235.13" y="339.35" width="0.43" height="37.55" transform="matrix(0.35, -0.94, 0.94, 0.35, -182.95, 451.24)"/><rect class="cls-1" x="53.43" y="193.17" width="37.53" height="0.43" transform="translate(-59.05 34.06) rotate(-19.01)"/><rect class="cls-1" x="46.31" y="239.36" width="39.83" height="0.43" transform="translate(-43.91 16.75) rotate(-10.85)"/><rect class="cls-1" x="95.51" y="278.1" width="0.43" height="37.55" transform="translate(-215.8 281.15) rotate(-69.24)"/><polygon class="cls-1" points="349.82 316.93 338.77 327.69 335.78 324.62 343.75 316.85 335.98 308.88 339.06 305.88 349.82 316.93"/><rect class="cls-1" x="284.4" y="236.28" width="39.83" height="0.43" transform="translate(-60.69 360.21) rotate(-56.58)"/><rect class="cls-1" x="311.57" y="139.41" width="0.43" height="39.83" transform="translate(7.06 331.78) rotate(-56.58)"/><rect class="cls-1" x="212.38" y="143.4" width="0.43" height="37.55" transform="translate(-48.59 104.88) rotate(-24.97)"/><rect class="cls-1" x="72.94" y="707.26" width="0.43" height="39.83" transform="translate(-319.04 110.48) rotate(-26.71)"/><rect class="cls-1" x="78.3" y="682.03" width="39.83" height="0.43" transform="translate(-580.39 561.4) rotate(-71.71)"/><rect class="cls-1" x="53.76" y="640.9" width="0.43" height="37.53" transform="translate(-589.31 503.89) rotate(-71.71)"/><rect class="cls-1" x="137" y="767.06" width="39.83" height="0.43" transform="translate(-244.49 94.81) rotate(-19.28)"/><rect class="cls-1" x="-21.45" y="732.53" width="37.55" height="0.43" transform="translate(-717.93 573.62) rotate(-77.67)"/><rect class="cls-1" x="1068.22" y="489.5" width="37.55" height="0.43" transform="translate(-27.91 912.06) rotate(-45)"/><rect class="cls-1" x="1106.53" y="521.9" width="0.43" height="39.83" transform="translate(134.73 1299.2) rotate(-64.01)"/><rect class="cls-1" x="1262.66" y="468.67" width="0.43" height="39.83" transform="translate(159.46 1273.46) rotate(-56.58)"/><rect class="cls-1" x="1163.47" y="472.66" width="0.43" height="37.55" transform="translate(-98.69 537.09) rotate(-24.97)"/><rect class="cls-1" x="1085.76" y="880.94" width="37.55" height="0.43" transform="translate(-299.56 1039.11) rotate(-45)"/><rect class="cls-1" x="1124.06" y="913.34" width="0.43" height="39.83" transform="translate(-207.27 1534.86) rotate(-64.01)"/><rect class="cls-1" x="1155.35" y="888.2" width="0.43" height="37.55" transform="translate(-274.84 572.49) rotate(-24.97)"/><polygon class="cls-1" points="89.38 379.02 78.47 389.93 67.56 379.02 70.6 375.99 78.47 383.86 86.34 375.99 89.38 379.02"/><polygon class="cls-1" points="936.91 699.83 933.7 714.92 918.61 711.7 919.51 707.5 930.39 709.82 932.72 698.94 936.91 699.83"/><rect class="cls-1" x="807.18" y="181.12" width="0.43" height="39.83"/><rect class="cls-1" x="936.06" y="189.52" width="39.83" height="0.43"/><rect class="cls-1" x="942.34" y="170.97" width="0.43" height="37.53" transform="translate(141.9 722.06) rotate(-45)"/><rect class="cls-1" x="813.86" y="306.99" width="39.83" height="0.43" transform="translate(26.98 679.55) rotate(-45)"/><rect class="cls-1" x="804.18" y="248.38" width="0.43" height="37.53" transform="translate(46.7 647.04) rotate(-45)"/><rect class="cls-1" x="1303.39" y="64.6" width="0.43" height="39.83" transform="translate(247.57 853.49) rotate(-39.77)"/><rect class="cls-1" x="1269.42" y="133.73" width="39.83" height="0.43" transform="translate(1038.43 1405.71) rotate(-84.77)"/><rect class="cls-1" x="1337.33" y="127.18" width="0.43" height="37.53" transform="translate(1070.29 1464.62) rotate(-84.77)"/><rect class="cls-1" x="829.48" y="49.46" width="0.43" height="37.54" transform="translate(194.76 606.67) rotate(-45)"/><rect class="cls-1" x="932.42" y="13.83" width="37.55" height="0.43" transform="translate(268.67 676.71) rotate(-45)"/><rect class="cls-1" x="1220.26" y="203.16" width="0.43" height="39.83"/><rect class="cls-1" x="1312.92" y="165.7" width="0.43" height="39.83" transform="translate(828.46 1420.06) rotate(-76.61)"/><rect class="cls-1" x="1214.8" y="209.65" width="0.43" height="39.83" transform="translate(58.59 667.35) rotate(-31.43)"/><rect class="cls-1" x="1316.3" y="231.19" width="0.43" height="37.55" transform="translate(208.84 1004.12) rotate(-45)"/><rect class="cls-1" x="970.72" y="46.23" width="0.43" height="39.83" transform="translate(486 909.9) rotate(-64.01)"/><rect class="cls-1" x="978.01" y="97.15" width="0.43" height="39.83" transform="translate(15.22 325.02) rotate(-19.01)"/><rect class="cls-1" x="1008.34" y="108" width="37.53" height="0.43" transform="translate(20.77 340.46) rotate(-19.01)"/><rect class="cls-1" x="1001.22" y="154.2" width="39.83" height="0.43" transform="translate(-10.81 194.96) rotate(-10.85)"/><rect class="cls-1" x="1050.42" y="192.93" width="0.43" height="37.55" transform="translate(480.26 1119.08) rotate(-69.24)"/><polygon class="cls-1" points="1300.04 12.01 1305.62 -2.36 1309.62 -0.81 1305.59 9.57 1315.96 13.6 1314.41 17.6 1300.04 12.01"/><rect class="cls-1" x="697.98" y="131.43" width="0.43" height="39.83"/><rect class="cls-1" x="689.17" y="263.18" width="39.83" height="0.43"/><rect class="cls-1" x="757.85" y="239.08" width="0.43" height="37.53" transform="translate(39.7 611.56) rotate(-45)"/><rect class="cls-1" x="720.87" y="122.27" width="39.83" height="0.43" transform="translate(130.36 559.69) rotate(-45)"/><rect class="cls-1" x="745.96" y="56.76" width="0.43" height="37.53" transform="translate(165.15 549.74) rotate(-45)"/><rect class="cls-1" x="725.5" y="-15.75" width="0.43" height="37.54" transform="translate(210.42 514.05) rotate(-45)"/><polygon class="cls-1" points="716.7 491.01 705.79 501.92 694.89 491.01 697.92 487.98 705.79 495.85 713.67 487.98 716.7 491.01"/><rect class="cls-1" x="624.66" y="9.6" width="0.43" height="39.83" transform="translate(125.7 406.57) rotate(-39.77)"/><rect class="cls-1" x="590.7" y="78.73" width="39.83" height="0.43" transform="translate(476.34 679.82) rotate(-84.77)"/><rect class="cls-1" x="658.61" y="72.18" width="0.43" height="37.53" transform="translate(508.2 738.73) rotate(-84.77)"/><rect class="cls-1" x="634.2" y="110.7" width="0.43" height="39.83" transform="translate(360.42 717.53) rotate(-76.61)"/><rect class="cls-1" x="637.57" y="176.19" width="0.43" height="37.55" transform="translate(48.94 508.08) rotate(-45)"/><rect class="cls-1" x="1191.72" y="83.14" width="0.43" height="39.83" transform="translate(14.92 317.46) rotate(-15.27)"/><rect class="cls-1" x="1205.5" y="63.78" width="39.83" height="0.43" transform="translate(562.06 1096.32) rotate(-60.27)"/><rect class="cls-1" x="1186.31" y="14.32" width="0.43" height="37.53" transform="translate(569.3 1046.97) rotate(-60.27)"/><rect class="cls-1" x="1224.97" y="-12.8" width="0.43" height="39.83" transform="translate(467.04 969.58) rotate(-52.1)"/><polygon class="cls-1" points="1165.11 170.51 1154.06 181.28 1151.07 178.2 1159.04 170.43 1151.27 162.46 1154.34 159.46 1165.11 170.51"/><polygon class="cls-1" points="919.77 1.21 918.52 5.31 907.88 2.06 904.63 12.71 900.52 11.46 905.02 -3.3 919.77 1.21"/><rect class="cls-1" x="1099.69" y="89.86" width="39.83" height="0.43" transform="matrix(0.55, -0.83, 0.83, 0.55, 427.71, 974.89)"/><rect class="cls-1" x="1126.85" y="-7.01" width="0.43" height="39.83" transform="translate(495.46 946.46) rotate(-56.58)"/><rect class="cls-1" x="1459.29" y="963.86" width="0.43" height="39.83"/><rect class="cls-1" x="1504.4" y="410.06" width="0.43" height="37.53" transform="translate(940.43 1888.09) rotate(-84.77)"/><rect class="cls-1" x="1671.64" y="295.96" width="0.43" height="37.54" transform="translate(-28.57 262.62) rotate(-8.91)"/><rect class="cls-1" x="1467.13" y="1038.93" width="37.55" height="0.43" transform="translate(-299.58 1355.05) rotate(-45)"/><rect class="cls-1" x="1606.13" y="944.43" width="0.43" height="39.83" transform="translate(296.2 2303.69) rotate(-76.61)"/><rect class="cls-1" x="1516.2" y="1067.68" width="39.83" height="0.43" transform="translate(141.51 2314.94) rotate(-76.61)"/><rect class="cls-1" x="1710.74" y="994.69" width="39.83" height="0.43" transform="translate(426.68 2506.41) rotate(-79.11)"/><rect class="cls-1" x="1630.54" y="283.18" width="37.54" height="0.43" transform="translate(-0.95 5.59) rotate(-0.19)"/><rect class="cls-1" x="1537.52" y="270.72" width="37.55" height="0.43" transform="translate(-0.91 5.28) rotate(-0.19)"/><rect class="cls-1" x="1630.46" y="237.94" width="39.83" height="0.43" transform="translate(122.28 905.52) rotate(-31.8)"/><rect class="cls-1" x="1557.07" y="1081.54" width="37.55" height="0.43" transform="translate(-303.36 1431.13) rotate(-45)"/><rect class="cls-1" x="334.5" y="383.01" width="0.43" height="39.83"/><rect class="cls-1" x="1888.82" y="972.52" width="0.43" height="39.83" transform="translate(486.1 2600.27) rotate(-76.61)"/><rect class="cls-1" x="329.03" y="389.5" width="0.43" height="39.83" transform="matrix(0.85, -0.52, 0.52, 0.85, -165.2, 231.8)"/><rect class="cls-1" x="430.53" y="411.04" width="0.43" height="37.55" transform="translate(-177.76 430.47) rotate(-45)"/><rect class="cls-1" x="1455.75" y="1052.68" width="0.43" height="39.83" transform="translate(-146.19 1911.29) rotate(-64.01)"/><polygon class="cls-1" points="1761.5 374.64 1759.79 378.58 1745.64 372.45 1751.77 358.3 1755.71 360 1751.28 370.22 1761.5 374.64"/><rect class="cls-1" x="1849.62" y="1054.91" width="0.43" height="39.83" transform="translate(-134.55 1874.41) rotate(-52.1)"/><polygon class="cls-1" points="1700.68 885.09 1699.43 889.19 1688.78 885.94 1685.53 896.59 1681.43 895.33 1685.93 880.58 1700.68 885.09"/><rect class="cls-1" x="1742.34" y="276.2" width="0.43" height="39.83" transform="translate(159.45 1082.21) rotate(-36.05)"/><rect class="cls-1" x="1751.5" y="1060.7" width="0.43" height="39.83" transform="translate(-115.09 1947.37) rotate(-56.58)"/><rect class="cls-1" x="1652.31" y="1064.69" width="0.43" height="37.55" transform="translate(-302.9 798.74) rotate(-24.97)"/><polygon class="cls-1" points="1639.12 1031 1635.7 1028.42 1642.4 1019.53 1633.51 1012.83 1636.09 1009.4 1648.41 1018.68 1639.12 1031"/><rect class="cls-1" x="1779.31" y="405.89" width="37.55" height="0.43" transform="translate(239.49 1390.38) rotate(-45)"/><rect class="cls-1" x="1918.32" y="311.39" width="0.43" height="39.83" transform="translate(1151.92 2120.95) rotate(-76.61)"/><rect class="cls-1" x="1823.56" y="350.52" width="39.83" height="0.43" transform="translate(1075.35 2062.87) rotate(-76.61)"/><rect class="cls-1" x="1869.25" y="448.5" width="37.55" height="0.43" transform="translate(235.7 1466.46) rotate(-45)"/><polygon class="cls-1" points="1856.6 435.87 1855.35 439.98 1844.7 436.73 1841.45 447.38 1837.35 446.12 1841.85 431.37 1856.6 435.87"/><rect class="cls-1" x="1777.05" y="887.73" width="0.43" height="39.83" transform="matrix(0.95, -0.3, 0.3, 0.95, -190.56, 575.77)"/><rect class="cls-1" x="1837.27" y="967.77" width="37.55" height="0.43" transform="translate(464.27 2531.59) rotate(-75.87)"/><polygon class="cls-1" points="1833.36 1017.15 1834.39 1021.32 1823.58 1023.99 1826.26 1034.8 1822.09 1035.83 1818.39 1020.86 1833.36 1017.15"/><rect class="cls-1" x="1028.52" y="228.94" width="0.43" height="37.54" transform="matrix(0.96, -0.29, 0.29, 0.96, -27.66, 308.4)"/><rect class="cls-1" x="1395.73" y="1026.5" width="39.83" height="0.43" transform="translate(139.95 2222.88) rotate(-79.11)"/><rect class="cls-1" x="1368.04" y="284.45" width="0.43" height="39.83"/><rect class="cls-1" x="1375.88" y="359.53" width="37.55" height="0.43" transform="translate(154.11 1091.53) rotate(-45)"/><rect class="cls-1" x="1514.88" y="265.03" width="0.43" height="39.83" transform="translate(887.02 1692.86) rotate(-76.61)"/><rect class="cls-1" x="1420.13" y="304.15" width="39.83" height="0.43" transform="translate(810.45 1634.78) rotate(-76.61)"/><rect class="cls-1" x="1304.48" y="347.1" width="39.83" height="0.43" transform="translate(733.11 1582.23) rotate(-79.11)"/><rect class="cls-1" x="983.32" y="219.57" width="37.54" height="0.43" transform="translate(-20.99 143.65) rotate(-8.11)"/><rect class="cls-1" x="908.59" y="191.66" width="37.55" height="0.43" transform="translate(-17.8 132.83) rotate(-8.11)"/><rect class="cls-1" x="1325.23" y="1012.94" width="39.83" height="0.43" transform="translate(-131.53 1822.68) rotate(-65.72)"/><rect class="cls-1" x="1533.46" y="355.15" width="39.83" height="0.43" transform="translate(861.95 1791.05) rotate(-77.17)"/><rect class="cls-1" x="1162.48" y="256.89" width="39.83" height="0.43" transform="translate(669.15 1352.89) rotate(-77.17)"/><rect class="cls-1" x="1188.95" y="232.07" width="0.43" height="39.83" transform="translate(-18.25 392.55) rotate(-18.6)"/><rect class="cls-1" x="1871.98" y="555.47" width="39.83" height="0.43" transform="translate(929.97 2276.95) rotate(-77.17)"/><rect class="cls-1" x="1898.45" y="530.66" width="0.43" height="39.83" transform="translate(-76.43 634.51) rotate(-18.6)"/><rect class="cls-1" x="1094.52" y="190.79" width="0.43" height="37.55" transform="translate(56.49 615.04) rotate(-32.17)"/><polygon class="cls-1" points="1492.44 317.95 1505.5 309.74 1513.71 322.79 1510.08 325.07 1504.15 315.65 1494.72 321.58 1492.44 317.95"/><rect class="cls-1" x="1689.72" y="373.58" width="39.83" height="0.43" transform="translate(965.54 1957.74) rotate(-77.17)"/><rect class="cls-1" x="1716.19" y="348.76" width="0.43" height="39.83" transform="matrix(0.95, -0.32, 0.32, 0.95, -27.93, 566.86)"/><rect class="cls-1" x="1621.76" y="307.47" width="0.43" height="37.55" transform="translate(75.31 913.67) rotate(-32.17)"/><polygon class="cls-1" points="1125.78 294.7 1124.63 298.84 1109.77 294.71 1113.9 279.85 1118.03 281 1115.05 291.73 1125.78 294.7"/><polygon class="cls-1" points="1384.69 1083.03 1390.28 1068.65 1394.28 1070.2 1390.25 1080.58 1400.62 1084.62 1399.07 1088.61 1384.69 1083.03"/><rect class="cls-1" x="1846.71" y="873.96" width="0.43" height="39.83" transform="translate(-181.75 586.27) rotate(-17.2)"/><rect class="cls-1" x="1786.56" y="848.57" width="37.55" height="0.43" transform="translate(212.62 2050) rotate(-62.2)"/><rect class="cls-1" x="1806.64" y="728.22" width="0.43" height="37.54" transform="translate(303.48 1997.02) rotate(-62.2)"/><rect class="cls-1" x="1823.82" y="788.06" width="0.43" height="39.83" transform="translate(746.93 2487.19) rotate(-81.21)"/><rect class="cls-1" x="1739.17" y="784.18" width="37.53" height="0.43" transform="translate(-123.82 1190.13) rotate(-36.21)"/><rect class="cls-1" x="1875.91" y="819.96" width="0.43" height="39.83" transform="translate(-80.98 211.4) rotate(-6.31)"/><polygon class="cls-1" points="1889.03 776.93 1887.95 792.32 1883.67 792.02 1884.45 780.91 1873.35 780.13 1873.65 775.85 1889.03 776.93"/><rect class="cls-1" x="1309.63" y="1058.21" width="0.43" height="39.83" transform="translate(-345.48 1449.56) rotate(-52.1)"/><rect class="cls-1" x="1236.11" y="996.57" width="0.43" height="39.83" transform="translate(-142.19 1829.77) rotate(-69.97)"/><rect class="cls-1" x="1093.37" y="314.56" width="0.43" height="39.83"/><rect class="cls-1" x="1101.2" y="389.63" width="37.55" height="0.43" transform="translate(52.37 906.13) rotate(-45)"/><rect class="cls-1" x="1240.21" y="295.13" width="0.43" height="39.83" transform="translate(646.67 1448.78) rotate(-76.61)"/><rect class="cls-1" x="1145.45" y="334.26" width="39.83" height="0.43" transform="translate(570.1 1390.7) rotate(-76.61)"/><rect class="cls-1" x="1191.14" y="432.24" width="37.55" height="0.43" transform="translate(48.59 982.2) rotate(-45)"/><rect class="cls-1" x="1034.48" y="427.46" width="0.43" height="39.83" transform="translate(179.14 1181.38) rotate(-64.01)"/><polygon class="cls-1" points="1178.49 419.61 1177.24 423.72 1166.6 420.47 1163.35 431.12 1159.24 429.86 1163.74 415.11 1178.49 419.61"/><rect class="cls-1" x="1385.57" y="411.4" width="0.43" height="39.83" transform="translate(262.46 1350.33) rotate(-56.58)"/><rect class="cls-1" x="1286.38" y="415.39" width="0.43" height="37.55" transform="translate(-63.03 583.62) rotate(-24.97)"/><polygon class="cls-1" points="1273.2 381.7 1269.77 379.12 1276.47 370.23 1267.58 363.52 1270.16 360.1 1282.48 369.38 1273.2 381.7"/><polygon class="cls-1" points="1517.31 530.28 1518.7 534.33 1508.18 537.96 1511.81 548.49 1507.75 549.88 1502.72 535.3 1517.31 530.28"/><rect class="cls-1" x="1607.19" y="835.78" width="39.83" height="0.43" transform="translate(-187.34 1068.68) rotate(-34.5)"/><rect class="cls-1" x="1628.02" y="580.99" width="37.53" height="0.43" transform="translate(374.94 1777.92) rotate(-62.7)"/><rect class="cls-1" x="1557.01" y="646.68" width="0.43" height="37.55" transform="translate(-136.22 659.17) rotate(-22.93)"/><rect class="cls-1" x="1519.09" y="705.98" width="0.43" height="39.83" transform="translate(83.59 1605.62) rotate(-57.04)"/><rect class="cls-1" x="1433.15" y="740.58" width="0.43" height="39.83" transform="translate(15.38 1549.29) rotate(-57.04)"/><rect class="cls-1" x="1554.97" y="845.2" width="0.43" height="37.55" transform="translate(-213.71 674.06) rotate(-22.93)"/><rect class="cls-1" x="1600.31" y="700.35" width="39.83" height="0.43" transform="translate(-111.84 1040.96) rotate(-34.5)"/><rect class="cls-1" x="1617.99" y="786.32" width="37.55" height="0.43" transform="translate(-37.6 83.58) rotate(-2.89)"/><polygon class="cls-1" points="1531.93 786.26 1528.25 788.46 1522.53 778.91 1512.98 784.63 1510.78 780.95 1524.01 773.03 1531.93 786.26"/><rect class="cls-1" x="918.46" y="293.52" width="0.43" height="37.54" transform="translate(32.58 707.66) rotate(-42.82)"/><rect class="cls-1" x="1029.8" y="377.2" width="39.83" height="0.43" transform="translate(480.77 1336.92) rotate(-79.11)"/><rect class="cls-1" x="936.1" y="325.5" width="37.54" height="0.43" transform="matrix(0.83, -0.56, 0.56, 0.83, -18.39, 591.5)"/><rect class="cls-1" x="1015.49" y="317.84" width="37.55" height="0.43" transform="translate(-0.43 634.7) rotate(-34.11)"/><rect class="cls-1" x="959.31" y="363.64" width="39.83" height="0.43" transform="translate(244.88 1106.83) rotate(-65.72)"/><polygon class="cls-1" points="1675.83 681.33 1681.42 666.96 1685.42 668.51 1681.38 678.88 1691.76 682.92 1690.21 686.92 1675.83 681.33"/><rect class="cls-1" x="943.71" y="408.91" width="0.43" height="39.83" transform="translate(25.74 910.31) rotate(-52.1)"/><rect class="cls-1" x="870.18" y="347.26" width="0.43" height="39.83" transform="translate(227.25 1059.12) rotate(-69.97)"/><rect class="cls-1" x="1175.04" y="1003.53" width="0.43" height="37.55" transform="translate(-321.68 591.58) rotate(-24.97)"/><rect class="cls-1" x="926.35" y="104.34" width="0.43" height="37.54" transform="translate(163.27 662.6) rotate(-42.82)"/><rect class="cls-1" x="943.99" y="136.32" width="37.54" height="0.43" transform="translate(89.06 563.37) rotate(-34.11)"/><polygon class="cls-1" points="818.74 123.4 817.96 119.18 833.13 116.38 835.93 131.54 831.71 132.32 829.69 121.38 818.74 123.4"/><rect class="cls-1" x="787.46" y="156.43" width="0.43" height="37.55" transform="translate(-0.35 348.83) rotate(-24.97)"/><rect class="cls-1" x="1211.51" y="1064.01" width="0.43" height="39.83" transform="translate(-360.4 1498.18) rotate(-56.58)"/><rect class="cls-1" x="927.53" y="882.02" width="39.83" height="0.43" transform="translate(-310.17 574.99) rotate(-29.23)"/><rect class="cls-1" x="962.59" y="944.67" width="39.83" height="0.43" transform="translate(-220.59 304.03) rotate(-15.84)"/><polygon class="cls-1" points="1010.45 869.62 995.86 874.61 994.47 870.55 1005 866.94 1001.4 856.41 1005.46 855.02 1010.45 869.62"/><polygon class="cls-1" points="1208.13 947.72 1214.93 933.88 1218.78 935.77 1213.88 945.76 1223.88 950.66 1221.98 954.52 1208.13 947.72"/><rect class="cls-1" x="1054.72" y="910.09" width="0.43" height="39.83" transform="translate(-35.31 41.66) rotate(-2.23)"/><rect class="cls-1" x="1054.96" y="1006.04" width="0.43" height="39.83" transform="translate(-288.17 424.79) rotate(-20.09)"/><rect class="cls-1" x="1122.38" y="981.39" width="0.43" height="39.83" transform="translate(-109.1 137.73) rotate(-6.7)"/><rect class="cls-1" x="1027.66" y="-3.01" width="0.43" height="37.55" transform="translate(89.39 435.32) rotate(-24.97)"/><rect class="cls-1" x="575.04" y="183.39" width="37.54" height="0.43" transform="translate(58.5 499.46) rotate(-47.72)"/><polygon class="cls-1" points="584.31 76.2 588.45 75.06 592.54 89.93 577.66 94.03 576.53 89.89 587.26 86.94 584.31 76.2"/><rect class="cls-1" x="724.32" y="349.39" width="0.43" height="39.83"/><rect class="cls-1" x="776.41" y="369.09" width="39.83" height="0.43" transform="translate(252.64 1058.45) rotate(-76.61)"/><rect class="cls-1" x="646.44" y="352.67" width="37.55" height="0.43" transform="matrix(0.83, -0.56, 0.56, 0.83, -83.45, 433.74)"/><rect class="cls-1" x="545.72" y="333.37" width="39.83" height="0.43" transform="translate(-26.44 49.56) rotate(-4.9)"/><rect class="cls-1" x="512.5" y="345.83" width="0.43" height="37.55" transform="translate(-96.43 521.97) rotate(-49.9)"/><rect class="cls-1" x="394.81" y="341.22" width="37.54" height="0.43" transform="translate(-113.98 437.89) rotate(-49.9)"/><rect class="cls-1" x="380.41" y="258.63" width="37.53" height="0.43" transform="translate(-55.93 397.48) rotate(-49.9)"/><rect class="cls-1" x="617.79" y="241.98" width="0.43" height="39.83" transform="translate(267.76 834.47) rotate(-81.51)"/><rect class="cls-1" x="523.97" y="295.87" width="0.43" height="37.55" transform="translate(-54.12 512.97) rotate(-49.9)"/><polygon class="cls-1" points="148.99 670.36 164.26 668.24 164.85 672.49 153.83 674.02 155.36 685.05 151.11 685.64 148.99 670.36"/><rect class="cls-1" x="192.19" y="609.82" width="39.83" height="0.43" transform="translate(-404.99 419.44) rotate(-53.66)"/><rect class="cls-1" x="200.44" y="607.83" width="39.83" height="0.43" transform="translate(-404.29 775.64) rotate(-85.1)"/><rect class="cls-1" x="150.47" y="512.7" width="0.43" height="37.55" transform="translate(-78.34 28.76) rotate(-8.66)"/><rect class="cls-1" x="-15.21" y="509.16" width="0.43" height="39.83" transform="translate(-458.6 240.36) rotate(-58.57)"/><rect class="cls-1" x="45.8" y="516.65" width="0.43" height="37.55" transform="translate(-124.31 25.73) rotate(-13.57)"/><rect class="cls-1" x="93.37" y="612.62" width="37.54" height="0.43" transform="translate(-140.63 43.4) rotate(-13.57)"/><rect class="cls-1" x="6.96" y="550.1" width="0.43" height="37.55" transform="translate(-133.24 17.55) rotate(-13.57)"/><polygon class="cls-1" points="534.29 282.25 530.1 281.35 532.42 270.46 521.54 268.13 522.44 263.94 537.52 267.16 534.29 282.25"/><rect class="cls-1" x="984.7" y="508.6" width="0.43" height="37.55" transform="translate(-52.88 941.11) rotate(-49.9)"/><polygon class="cls-1" points="995.01 494.98 990.82 494.08 993.15 483.19 982.26 480.87 983.16 476.67 998.24 479.89 995.01 494.98"/><rect class="cls-1" x="361.51" y="193.56" width="39.83" height="0.43" transform="translate(-43.42 143.39) rotate(-20.17)"/><rect class="cls-1" x="431.91" y="182.2" width="37.53" height="0.43" transform="translate(95.87 514.82) rotate(-65.17)"/><rect class="cls-1" x="802.41" y="472.63" width="39.83" height="0.43" transform="translate(-112.61 312.51) rotate(-20.17)"/><rect class="cls-1" x="872.81" y="461.27" width="37.53" height="0.43" transform="translate(98.34 1076.83) rotate(-65.17)"/><rect class="cls-1" x="515.08" y="139.97" width="39.83" height="0.43" transform="translate(260.02 620.04) rotate(-74.87)"/><rect class="cls-1" x="505.2" y="79.63" width="37.55" height="0.43" transform="translate(29.84 271.55) rotate(-29.87)"/><rect class="cls-1" x="387.97" y="100.69" width="0.43" height="39.83" transform="translate(96.86 404.09) rotate(-61.48)"/><rect class="cls-1" x="445.78" y="121.23" width="39.83" height="0.43" transform="translate(136.62 472.64) rotate(-61.48)"/><rect class="cls-1" x="435.61" y="22.65" width="37.55" height="0.43" transform="translate(48.97 229.33) rotate(-29.87)"/><polygon class="cls-1" points="505.51 5.03 507.8 1.39 517.23 7.31 523.14 -2.12 526.78 0.16 518.58 13.22 505.51 5.03"/><rect class="cls-1" x="249.28" y="461.74" width="0.43" height="37.53" transform="translate(-253.23 681.52) rotate(-84.35)"/><rect class="cls-1" x="273.98" y="421.1" width="0.43" height="39.83" transform="translate(-219.52 602.04) rotate(-76.19)"/><rect class="cls-1" x="137.95" y="458.19" width="39.83" height="0.43" transform="translate(-218.5 152.78) rotate(-31.92)"/><rect class="cls-1" x="441.06" y="1041.3" width="0.43" height="39.83" transform="translate(-694.59 1236.47) rotate(-76.19)"/><rect class="cls-1" x="438.15" y="978.06" width="0.43" height="37.55" transform="translate(-573.57 594.56) rotate(-44.58)"/><polygon class="cls-1" points="317.14 986.52 331.67 981.35 333.11 985.39 322.63 989.12 326.36 999.61 322.32 1001.05 317.14 986.52"/><polygon class="cls-1" points="180.42 484.7 183.27 481.5 191.59 488.89 198.99 480.57 202.19 483.42 191.95 494.95 180.42 484.7"/><rect class="cls-1" x="305.02" y="1078.39" width="39.83" height="0.43" transform="translate(-521.15 334.89) rotate(-31.92)"/><rect class="cls-1" x="56.94" y="766.64" width="0.43" height="39.83" transform="translate(-203.11 42.11) rotate(-15.11)"/><rect class="cls-1" x="4.34" y="958.45" width="0.43" height="37.55" transform="translate(-339.45 62.54) rotate(-20.34)"/><polygon class="cls-1" points="30.15 853.94 19.07 864.67 16.09 861.59 24.08 853.84 16.34 845.85 19.42 842.86 30.15 853.94"/><rect class="cls-1" x="21" y="1005.69" width="37.54" height="0.43" transform="translate(-390.95 96.01) rotate(-23.07)"/><rect class="cls-1" x="61.69" y="866.71" width="39.83" height="0.43" transform="matrix(0.55, -0.84, 0.84, 0.55, -688.89, 461.27)"/><rect class="cls-1" x="13.44" y="404.21" width="0.43" height="37.55" transform="translate(-179.1 46.23) rotate(-25.25)"/><rect class="cls-1" x="49.44" y="421.8" width="39.83" height="0.43" transform="translate(-274.83 168.16) rotate(-44.26)"/><rect class="cls-1" x="119.53" y="412.45" width="0.43" height="39.83" transform="translate(-314.14 546.49) rotate(-89.26)"/><rect class="cls-1" x="235.23" y="535.55" width="37.55" height="0.43" transform="translate(-329.52 430.58) rotate(-54.42)"/><polygon class="cls-1" points="189.29 787.36 204.58 789.4 202.54 804.69 198.29 804.12 199.76 793.09 188.72 791.61 189.29 787.36"/><rect class="cls-1" x="399.71" y="643.18" width="0.43" height="37.55" transform="translate(-301.13 988.54) rotate(-83.84)"/><rect class="cls-1" x="376.76" y="745.38" width="0.43" height="37.55" transform="translate(-395.27 1124.27) rotate(-88.74)"/><rect class="cls-1" x="357.16" y="553.18" width="37.53" height="0.43" transform="translate(-273.98 712.06) rotate(-69.53)"/><rect class="cls-1" x="324.16" y="519.2" width="39.83" height="0.43" transform="translate(-276.69 572.54) rotate(-61.37)"/><rect class="cls-1" x="330.91" y="616.41" width="0.43" height="39.83" transform="translate(-172.43 125.46) rotate(-17.1)"/><polygon class="cls-1" points="354.55 606.03 358.57 604.53 362.47 614.96 372.9 611.06 374.4 615.08 359.95 620.48 354.55 606.03"/><polygon class="cls-1" points="1393.56 929.37 1396.88 932.09 1389.83 940.71 1398.45 947.76 1395.73 951.08 1383.79 941.31 1393.56 929.37"/><rect class="cls-1" x="273.08" y="692.65" width="0.43" height="39.83" transform="translate(-314.89 226.27) rotate(-29.43)"/><rect class="cls-1" x="276.29" y="666.29" width="39.83" height="0.43" transform="translate(-425.35 772.98) rotate(-74.43)"/><rect class="cls-1" x="127.74" y="861.44" width="0.43" height="39.83" transform="translate(-744.78 703.9) rotate(-70.25)"/><rect class="cls-1" x="212.61" y="830.5" width="0.43" height="37.55" transform="translate(-341.9 171.9) rotate(-25.25)"/><rect class="cls-1" x="250.65" y="937.43" width="37.54" height="0.43" transform="translate(-374.18 204.47) rotate(-25.25)"/><rect class="cls-1" x="229.29" y="1018.5" width="37.53" height="0.43" transform="translate(-410.8 203.11) rotate(-25.25)"/><rect class="cls-1" x="50.24" y="904.74" width="0.43" height="39.83" transform="translate(-751.35 461.35) rotate(-56.86)"/><rect class="cls-1" x="181.34" y="871.13" width="0.43" height="37.55" transform="translate(-362.21 162.44) rotate(-25.25)"/><polygon class="cls-1" points="135.02 941.08 138.46 943.65 131.8 952.57 140.72 959.23 138.16 962.67 125.8 953.44 135.02 941.08"/><rect class="cls-1" x="150.59" y="1066.48" width="37.53" height="0.43" transform="translate(-652.33 365.74) rotate(-40.51)"/><rect class="cls-1" x="55.2" y="1069.68" width="39.83" height="0.43" transform="translate(-795.09 442.95) rotate(-50.21)"/><polygon class="cls-1" points="904.66 232.6 893.76 243.51 882.85 232.6 885.88 229.57 893.76 237.44 901.63 229.57 904.66 232.6"/><rect class="cls-1" x="613.33" y="580.97" width="0.43" height="39.83" transform="translate(-64.03 73.25) rotate(-6.49)"/><rect class="cls-1" x="391.05" y="512.59" width="39.83" height="0.43" transform="translate(-55.36 49.77) rotate(-6.49)"/><rect class="cls-1" x="424.09" y="492.52" width="0.43" height="37.53" transform="translate(-239.97 525) rotate(-51.49)"/><rect class="cls-1" x="585.74" y="503.39" width="39.83" height="0.43" transform="translate(-165.51 664.02) rotate(-51.49)"/><rect class="cls-1" x="639.16" y="521.32" width="0.43" height="37.53" transform="translate(-181.33 704.18) rotate(-51.49)"/><rect class="cls-1" x="757.78" y="623.21" width="0.43" height="39.83" transform="translate(-67.88 89.86) rotate(-6.49)"/><rect class="cls-1" x="714.58" y="532.81" width="39.83" height="0.43" transform="translate(-55.58 86.5) rotate(-6.49)"/><rect class="cls-1" x="686.25" y="525.31" width="0.43" height="37.53" transform="translate(-166.69 742.53) rotate(-51.49)"/><polygon class="cls-1" points="688.11 627.98 697.71 615.91 709.78 625.51 707.11 628.87 698.39 621.94 691.46 630.65 688.11 627.98"/><rect class="cls-1" x="812.87" y="574.17" width="0.43" height="37.55" transform="translate(-157.15 860.06) rotate(-51.49)"/><rect class="cls-1" x="506.93" y="628.57" width="37.55" height="0.43" transform="translate(-141.6 152.92) rotate(-14.61)"/><rect class="cls-1" x="520.51" y="489.38" width="0.43" height="37.54" transform="translate(-204.07 571.76) rotate(-49.32)"/><rect class="cls-1" x="464.47" y="498.69" width="37.54" height="0.43" transform="translate(-208.35 434.63) rotate(-40.6)"/><rect class="cls-1" x="482.25" y="375.3" width="0.43" height="39.83" transform="translate(-106.25 601.1) rotate(-58.6)"/><rect class="cls-1" x="562.28" y="428.24" width="0.43" height="39.83" transform="translate(-4.9 890.09) rotate(-76.46)"/><rect class="cls-1" x="635.85" y="605.54" width="0.43" height="37.55" transform="translate(-232.34 423.74) rotate(-31.46)"/><rect class="cls-1" x="706.95" y="409.63" width="0.43" height="39.83" transform="translate(-44.05 82.74) rotate(-6.49)"/><rect class="cls-1" x="615.93" y="437.45" width="39.83" height="0.43" transform="translate(125 1016.36) rotate(-83.1)"/><rect class="cls-1" x="749.19" y="438.94" width="37.55" height="0.43" transform="translate(-100.91 605.54) rotate(-40.6)"/><rect class="cls-1" x="1647.83" y="398.28" width="0.43" height="39.83"/><rect class="cls-1" x="1699.92" y="417.98" width="39.83" height="0.43" transform="translate(914.71 1994.42) rotate(-76.61)"/><rect class="cls-1" x="1569.95" y="401.56" width="37.55" height="0.43" transform="translate(48 960.03) rotate(-34.11)"/><rect class="cls-1" x="1630.46" y="458.52" width="0.43" height="39.83" transform="translate(-43.65 187.51) rotate(-6.49)"/><rect class="cls-1" x="1539.43" y="486.34" width="39.83" height="0.43" transform="translate(889.08 1976.2) rotate(-83.1)"/><rect class="cls-1" x="1417.42" y="525.8" width="0.43" height="37.53" transform="translate(689.95 1877.51) rotate(-82.38)"/><rect class="cls-1" x="1359.2" y="681.4" width="0.43" height="37.55" transform="translate(607.72 2031.79) rotate(-87.81)"/><rect class="cls-1" x="1505.85" y="617.96" width="37.55" height="0.43" transform="translate(-15.95 1195.45) rotate(-42.61)"/><rect class="cls-1" x="1400.95" y="667.98" width="0.43" height="39.83" transform="translate(358.19 1849.21) rotate(-74.22)"/><rect class="cls-1" x="1457.04" y="671.4" width="39.83" height="0.43" transform="translate(429.04 1910.3) rotate(-74.22)"/><rect class="cls-1" x="1292.64" y="766.31" width="0.43" height="37.53" transform="translate(-215.89 892.28) rotate(-35.33)"/><rect class="cls-1" x="1392.44" y="878.94" width="0.43" height="37.55" transform="translate(389.87 2216.73) rotate(-85.56)"/><rect class="cls-1" x="1462.67" y="923.66" width="39.83" height="0.43" transform="translate(-262.94 855.04) rotate(-29.67)"/><rect class="cls-1" x="1269.33" y="891.79" width="0.43" height="37.55" transform="matrix(0.96, -0.26, 0.26, 0.96, -194.78, 365.94)"/><rect class="cls-1" x="1294.88" y="957.54" width="0.43" height="39.83" transform="translate(-303.72 1254.02) rotate(-46.86)"/><rect class="cls-1" x="1345.94" y="615.72" width="39.83" height="0.43" transform="translate(412.99 1772.22) rotate(-74.78)"/><polygon class="cls-1" points="1425.18 655.86 1411.79 663.52 1404.13 650.14 1407.85 648 1413.38 657.67 1423.05 652.14 1425.18 655.86"/><rect class="cls-1" x="1313.69" y="567.88" width="37.55" height="0.43" transform="translate(-99.65 785.46) rotate(-31.72)"/><rect class="cls-1" x="1345.43" y="484.4" width="39.83" height="0.43" transform="translate(666.81 1753.89) rotate(-80.72)"/><rect class="cls-1" x="1718.59" y="501.62" width="37.55" height="0.43" transform="translate(91.7 1251.54) rotate(-40.6)"/><rect class="cls-1" x="1845.84" y="701.66" width="0.43" height="37.54" transform="translate(-117.95 984.25) rotate(-28.97)"/><rect class="cls-1" x="1790.08" y="657.99" width="0.43" height="39.83" transform="translate(-71.1 230.8) rotate(-7.23)"/><rect class="cls-1" x="1785.48" y="665.12" width="0.43" height="39.83" transform="translate(-36.56 1265.87) rotate(-38.67)"/><rect class="cls-1" x="1888.74" y="673.72" width="0.43" height="37.55" transform="translate(184.63 1761.6) rotate(-52.23)"/><rect class="cls-1" x="1832.71" y="595.16" width="0.43" height="39.83" transform="translate(-99.77 666.11) rotate(-20.06)"/><rect class="cls-1" x="1765.28" y="619.78" width="0.43" height="39.83" transform="translate(-62.37 209.46) rotate(-6.67)"/><rect class="cls-1" x="1333.96" y="855.98" width="39.83" height="0.43" transform="translate(-188.18 422.47) rotate(-16.6)"/><rect class="cls-1" x="1326.18" y="852.6" width="39.83" height="0.43" transform="translate(-188.13 1283.43) rotate(-48.03)"/><rect class="cls-1" x="1367.63" y="825.28" width="39.83" height="0.43" transform="translate(-174.06 415.49) rotate(-16.04)"/><rect class="cls-1" x="1828.36" y="532.61" width="0.43" height="39.83" transform="translate(-54.1 875.84) rotate(-26.56)"/><rect class="cls-1" x="1749.39" y="564.15" width="37.55" height="0.43" transform="translate(409.95 1829.34) rotate(-60.67)"/><rect class="cls-1" x="913.56" y="1065.2" width="0.43" height="37.53" transform="translate(-467.56 1403.16) rotate(-62.88)"/><polygon class="cls-1" points="655.21 1038.47 658.26 1035.45 669.1 1046.42 658.13 1057.26 655.12 1054.21 663.03 1046.38 655.21 1038.47"/><rect class="cls-1" x="614.21" y="995.42" width="37.55" height="0.43" transform="translate(-340 328.35) rotate(-23.11)"/><rect class="cls-1" x="550.3" y="1029.88" width="39.83" height="0.43" transform="translate(-600.03 900.63) rotate(-54.72)"/><polygon class="cls-1" points="589.78 946.2 592.47 942.86 601.14 949.84 608.13 941.17 611.47 943.87 601.79 955.87 589.78 946.2"/><rect class="cls-1" x="491.98" y="1096.2" width="39.83" height="0.43" transform="translate(-680.86 892.7) rotate(-55.28)"/><rect class="cls-1" x="483.79" y="1098.43" width="39.83" height="0.43" transform="translate(-622 1538.57) rotate(-86.72)"/><rect class="cls-1" x="756.8" y="1040.14" width="39.83" height="0.43" transform="translate(-478.21 1373.21) rotate(-68.11)"/><rect class="cls-1" x="690.19" y="1013.38" width="39.83" height="0.43" transform="translate(-527.47 1007.85) rotate(-54.72)"/><rect class="cls-1" x="806.86" y="1077.49" width="37.55" height="0.43" transform="translate(-209.4 199.17) rotate(-12.22)"/><rect class="cls-1" x="795.37" y="990.72" width="39.83" height="0.43" transform="matrix(0.27, -0.96, 0.96, 0.27, -356.53, 1513.9)"/><rect class="cls-1" x="864.58" y="1009.78" width="39.83" height="0.43" transform="translate(-426.6 1298.84) rotate(-61.21)"/><rect class="cls-1" x="972.48" y="1034.54" width="0.43" height="39.83" transform="translate(-374.31 1548.01) rotate(-67.43)"/><rect class="cls-1" x="743.68" y="959.14" width="37.55" height="0.43" transform="matrix(0.95, -0.32, 0.32, 0.95, -267.5, 295.35)"/><rect class="cls-1" x="314.14" y="866.22" width="0.43" height="37.53" transform="translate(-595.6 1117.36) rotate(-84.77)"/><rect class="cls-1" x="481.38" y="752.12" width="0.43" height="37.54" transform="translate(-113.54 83.85) rotate(-8.91)"/><polygon class="cls-1" points="571.24 830.8 569.53 834.74 555.38 828.61 561.51 814.46 565.45 816.16 561.02 826.38 571.24 830.8"/><rect class="cls-1" x="552.08" y="732.36" width="0.43" height="39.83" transform="translate(-336.95 469.09) rotate(-36.05)"/><rect class="cls-1" x="587.44" y="781.3" width="37.55" height="0.43" transform="translate(-260.08 1258.79) rotate(-81.05)"/><rect class="cls-1" x="589.05" y="862.05" width="37.55" height="0.43" transform="translate(-431.69 682.35) rotate(-45)"/><rect class="cls-1" x="343.2" y="811.31" width="39.83" height="0.43" transform="translate(-508.78 985.37) rotate(-77.17)"/><polygon class="cls-1" points="302.18 774.11 315.24 765.89 323.45 778.95 319.82 781.23 313.89 771.81 304.46 777.74 302.18 774.11"/><rect class="cls-1" x="499.46" y="829.74" width="39.83" height="0.43" transform="translate(-405.19 1152.06) rotate(-77.17)"/><rect class="cls-1" x="525.93" y="804.92" width="0.43" height="39.83" transform="translate(-235.66 210.96) rotate(-18.6)"/><rect class="cls-1" x="431.5" y="763.63" width="0.43" height="37.55" transform="translate(-350.3 349.97) rotate(-32.17)"/><rect class="cls-1" x="457.57" y="854.44" width="0.43" height="39.83"/><rect class="cls-1" x="509.66" y="874.14" width="39.83" height="0.43" transform="translate(-443.66 1187.04) rotate(-76.61)"/><rect class="cls-1" x="432.89" y="645.66" width="39.83" height="0.43" transform="translate(-277.49 943.95) rotate(-77.17)"/><rect class="cls-1" x="459.36" y="620.84" width="0.43" height="39.83" transform="translate(-180.41 180.11) rotate(-18.6)"/><rect class="cls-1" x="443.09" y="690.06" width="39.83" height="0.43" transform="translate(-315.73 980.83) rotate(-76.61)"/><rect class="cls-1" x="379.69" y="857.72" width="37.55" height="0.43" transform="matrix(0.83, -0.56, 0.56, 0.83, -412.56, 371.04)"/><rect class="cls-1" x="440.2" y="914.68" width="0.43" height="39.83" transform="translate(-102.88 55.81) rotate(-6.49)"/><rect class="cls-1" x="349.17" y="942.5" width="39.83" height="0.43" transform="translate(-611.12 1195.94) rotate(-83.1)"/><rect class="cls-1" x="482.44" y="943.98" width="37.55" height="0.43" transform="translate(-493.83 553.53) rotate(-40.6)"/><rect class="cls-1" x="824.96" y="504.3" width="0.43" height="39.83" transform="matrix(0.03, -1, 1, 0.03, 272.56, 1330.66)"/><rect class="cls-1" x="1005.04" y="586.97" width="39.83" height="0.43" transform="translate(-154.31 655.43) rotate(-33.12)"/><rect class="cls-1" x="1007.96" y="712.36" width="39.83" height="0.43" transform="matrix(0.84, -0.55, 0.55, 0.84, -222.34, 677.4)"/><rect class="cls-1" x="892.26" y="627.35" width="0.43" height="39.83" transform="translate(-13.18 18.57) rotate(-1.18)"/><rect class="cls-1" x="927.55" y="572.47" width="0.43" height="37.53" transform="translate(-141.19 851.34) rotate(-46.18)"/><rect class="cls-1" x="924.4" y="762.83" width="39.83" height="0.43" transform="translate(-4.9 1519.99) rotate(-77.51)"/><rect class="cls-1" x="866.22" y="682.09" width="0.43" height="37.55" transform="translate(-197.27 368.52) rotate(-21.62)"/><rect class="cls-1" x="945.57" y="674.23" width="39.83" height="0.43" transform="translate(-9.91 1334.48) rotate(-69.02)"/><rect class="cls-1" x="909.75" y="794.15" width="0.43" height="39.83" transform="translate(-244.84 1210.49) rotate(-60.76)"/><rect class="cls-1" x="635.2" y="717.29" width="39.83" height="0.43" transform="translate(-316.44 708.8) rotate(-47.09)"/><rect class="cls-1" x="725.71" y="669.33" width="39.83" height="0.43" transform="translate(-23.91 27.62) rotate(-2.09)"/><rect class="cls-1" x="743.9" y="765.32" width="0.43" height="37.53" transform="translate(-28.09 27.64) rotate(-2.09)"/><rect class="cls-1" x="718.89" y="875.79" width="39.83" height="0.43" transform="translate(-405.82 820.67) rotate(-47.09)"/><rect class="cls-1" x="806.9" y="766.61" width="0.43" height="39.83" transform="translate(-318.48 842.15) rotate(-47.09)"/><rect class="cls-1" x="859.99" y="700.13" width="0.43" height="37.53" transform="translate(-25.63 31.83) rotate(-2.09)"/><polygon class="cls-1" points="678.48 850.71 693.89 850.15 694.45 865.56 690.16 865.72 689.76 854.59 678.63 855 678.48 850.71"/><rect class="cls-1" x="812.53" y="866.42" width="0.43" height="37.55" transform="translate(-31.72 30.21) rotate(-2.09)"/><rect class="cls-1" x="654.97" y="770.98" width="37.55" height="0.43" transform="translate(-267.52 1174.55) rotate(-72.05)"/><rect class="cls-1" x="872.59" y="829.73" width="0.43" height="39.83" transform="translate(-339.39 730.18) rotate(-38.6)"/><rect class="cls-1" x="1212.3" y="563.02" width="39.83" height="0.43" transform="translate(-37.36 1036.28) rotate(-45)"/><rect class="cls-1" x="1268.62" y="603.29" width="0.43" height="39.83" transform="translate(248.66 1601.77) rotate(-69.97)"/><rect class="cls-1" x="1122.76" y="605.42" width="0.43" height="39.83"/><rect class="cls-1" x="1174.85" y="625.12" width="39.83" height="0.43" transform="translate(309.74 1642.8) rotate(-76.61)"/><rect class="cls-1" x="1044.88" y="608.7" width="37.55" height="0.43" transform="matrix(0.83, -0.56, 0.56, 0.83, -158.48, 701.22)"/><rect class="cls-1" x="1200.85" y="728.66" width="39.83" height="0.43" transform="translate(-176.45 465.59) rotate(-20.17)"/><rect class="cls-1" x="1271.25" y="717.29" width="37.53" height="0.43" transform="translate(97.1 1586.94) rotate(-65.17)"/><rect class="cls-1" x="1037.6" y="777.34" width="0.43" height="37.53" transform="translate(-231.31 1112.6) rotate(-51.49)"/><rect class="cls-1" x="1113.02" y="788.84" width="39.83" height="0.43" transform="translate(-81.98 133.21) rotate(-6.49)"/><rect class="cls-1" x="1084.69" y="781.34" width="0.43" height="37.53" transform="translate(-216.67 1150.95) rotate(-51.49)"/><rect class="cls-1" x="1211.31" y="830.2" width="0.43" height="37.55" transform="translate(-207.13 1268.48) rotate(-51.49)"/><rect class="cls-1" x="1105.39" y="665.65" width="0.43" height="39.83" transform="translate(-70.45 129.45) rotate(-6.49)"/><rect class="cls-1" x="1147.63" y="694.96" width="37.55" height="0.43" transform="translate(-171.6 926.5) rotate(-40.6)"/><rect class="cls-1" x="1223.4" y="760.33" width="0.43" height="39.83" transform="matrix(0.03, -1, 1, 0.03, 401.27, 1975.97)"/><polygon class="cls-1" points="543.66 585.74 553.26 573.67 565.33 583.27 562.66 586.63 553.95 579.7 547.02 588.41 543.66 585.74"/></svg>